<?xml version="1.0" encoding="UTF-8" standalone="no"?>
<!DOCTYPE svg PUBLIC "-//W3C//DTD SVG 1.1//EN" "http://www.w3.org/Graphics/SVG/1.1/DTD/svg11.dtd">
<svg width="100%" height="100%" viewBox="0 0 16 16" version="1.1" xmlns="http://www.w3.org/2000/svg" xmlns:xlink="http://www.w3.org/1999/xlink" xml:space="preserve" xmlns:serif="http://www.serif.com/" style="fill-rule:evenodd;clip-rule:evenodd;stroke-linejoin:round;stroke-miterlimit:2;">
    <path d="M0.846,0.846C0.304,1.388 0,2.123 0,2.889L0,13.111C0,13.877 0.304,14.612 0.846,15.154C1.388,15.696 2.123,16 2.889,16L13.111,16C13.877,16 14.612,15.696 15.154,15.154C15.696,14.612 16,13.877 16,13.111L16,2.889C16,2.123 15.696,1.388 15.154,0.846C14.612,0.304 13.877,0 13.111,0L2.889,0C2.123,0 1.388,0.304 0.846,0.846ZM1.333,13.111L1.333,8.444L9.778,8.444L9.778,14.667L2.889,14.667C2.03,14.667 1.333,13.97 1.333,13.111ZM9.778,7.111L9.778,1.333L2.889,1.333C2.476,1.333 2.081,1.497 1.789,1.789C1.497,2.081 1.333,2.476 1.333,2.889L1.333,7.111L9.778,7.111ZM11.111,5.778L14.667,5.778L14.667,10.222L11.111,10.222L11.111,5.778ZM14.667,11.556L11.111,11.556L11.111,14.667L13.111,14.667C13.524,14.667 13.919,14.503 14.211,14.211C14.503,13.919 14.667,13.524 14.667,13.111L14.667,11.556ZM14.667,2.889L14.667,4.444L11.111,4.444L11.111,1.333L13.111,1.333C13.524,1.333 13.919,1.497 14.211,1.789C14.503,2.081 14.667,2.476 14.667,2.889Z" style="fill:rgb(130,143,163);"/>
</svg>
